<svg
  xmlns="http://www.w3.org/2000/svg"
  width="1em"
  height="1em"
  viewBox="0 0 32 32"
>
  <title>Close</title>
  <path
    d="M27.893 25.262L18.65 16l9.26-9.262c.34-.34.55-.807.55-1.324
        0-1.034-.84-1.873-1.873-1.873-.517 0-.986.21-1.324.55L16
        13.353 6.74 4.108c-.324-.276-.747-.444-1.21-.444-1.03
        0-1.866.836-1.866 1.867 0 .464.168.887.446 1.213l9.242
        9.26-9.244 9.262c-.34.34-.55.807-.55 1.324 0 1.033.84 1.872
        1.874 1.872.517 0 .986-.21 1.324-.548L16 18.65l9.262
        9.262c.34.34.807.55 1.324.55 1.034 0 1.873-.84 1.873-1.874
        0-.517-.21-.986-.55-1.324z"
  />
</svg>
