<?xml version="1.0" encoding="utf-8"?>
<!-- Generator: Adobe Illustrator 21.1.0, SVG Export Plug-In . SVG Version: 6.00 Build 0)  -->
<svg version="1.1" id="Layer_1" xmlns="http://www.w3.org/2000/svg" xmlns:xlink="http://www.w3.org/1999/xlink" x="0px" y="0px"
	 width="82" height="23" viewBox="0 0 82 23" style="enable-background:new 0 0 82 23;" xml:space="preserve">
<g id="Abta_2_">
	<g id="Fill-25_2_">
		<path d="M15.3,19.2c0.6-0.8,1-1.8,1.4-2.8h1.9C17.8,17.6,16.6,18.5,15.3,19.2L15.3,19.2z M12.6,20v-3.6h2
			C14.1,17.7,13.4,18.9,12.6,20L12.6,20L12.6,20z M14.5,6.1h-2V2.5C13.4,3.6,14.1,4.8,14.5,6.1L14.5,6.1z M18.6,6.1h-1.9
			c-0.4-1-0.8-1.9-1.4-2.8C16.6,4,17.7,4.9,18.6,6.1L18.6,6.1z M17.6,10.2c-0.1-0.7-0.1-1.4-0.3-2.1h2.4c0.2,0.7,0.4,1.3,0.5,2.1
			H17.6L17.6,10.2z M17.6,12.3h2.6c-0.1,0.7-0.2,1.4-0.5,2.1h-2.4C17.5,13.7,17.5,13,17.6,12.3L17.6,12.3z M12.6,10.2V8.2h2.6
			c0.1,0.7,0.2,1.4,0.3,2.1H12.6L12.6,10.2z M15.4,12.3c0,0.7-0.1,1.4-0.3,2.1h-2.6v-2.1H15.4L15.4,12.3z M11.4,0.3
			c-0.3,0-0.7,0-1,0v1.8h0v19.4h0v0.7c0.3,0,0.7,0.1,1,0.1c6.1,0,11-4.9,11-11C22.4,5.2,17.5,0.3,11.4,0.3L11.4,0.3z"/>
	</g>
	<g id="Fill-26_2_">
		<path d="M46.9,13.1h-2.5v5h2.1c2.2,0,3.3-1,3.3-2.7C49.9,14.1,48.8,13.1,46.9,13.1 M46.3,5.6h-1.9v4.7h1.8c1.5,0,2.6-1,2.6-2.5
			C48.8,6.5,47.9,5.6,46.3,5.6 M46.9,20.9h-5.8V2.7h5.7c3.7,0,5.4,2.5,5.4,4.7c0,1.7-0.7,2.9-2.2,3.8v0.1c2.1,0.5,3.4,1.9,3.4,4.1
			C53.3,18,51.5,20.9,46.9,20.9"/>
	</g>
	<g id="Fill-27_2_">
		<polyline points="66.8,5.5 61.9,5.5 61.9,20.9 58.5,20.9 58.5,5.5 53.2,5.5 53.2,2.7 67.8,2.7 66.8,5.5 		"/>
	</g>
	<g id="Fill-28_2_">
		<path d="M31.7,9.5c-0.3-0.9-0.6-1.7-0.7-2.3h0c-0.1,0.6-0.4,1.4-0.7,2.2l-1.6,4.2h4.4L31.7,9.5L31.7,9.5z M36,20.9l-1.8-4.6h-6.5
			L26,20.9h-3.3l7-18.2h2.5l7.3,18.2H36L36,20.9z"/>
	</g>
	<g id="Fill-29_2_">
		<path d="M73.4,9.5c-0.3-0.9-0.6-1.7-0.7-2.3h0c-0.1,0.6-0.4,1.4-0.7,2.2l-1.6,4.2h4.4L73.4,9.5L73.4,9.5z M77.7,20.9l-1.8-4.6
			h-6.5l-1.7,4.6h-3.3l7-18.2h2.5l7.3,18.2H77.7L77.7,20.9z"/>
	</g>
	<g id="Fill-30_2_">
		<path d="M9.3,9.2V8.4L4.1,3.1C3.8,3.3,3.5,3.6,3.2,3.9l5.3,5.3H9.3"/>
	</g>
	<g id="Fill-31_2_">
		<path d="M9.3,13.3v0.8l-5.3,5.3c-0.3-0.3-0.6-0.5-0.8-0.8l5.3-5.3H9.3"/>
	</g>
	<g id="Fill-33_2_">
		<path d="M9.3,10.2H0.4c0,0.3-0.1,0.7-0.1,1c0,0.3,0,0.7,0.1,1h8.9V10.2"/>
	</g>
	<g id="Fill-35_2_">
		<path d="M2.6,4.6c-1,1.3-1.7,2.9-2,4.6h6.6L2.6,4.6"/>
	</g>
	<g id="Fill-36_2_">
		<path d="M9.3,7.1V0.5c-1.7,0.3-3.2,1-4.6,2L9.3,7.1"/>
	</g>
	<g id="Fill-37_2_">
		<path d="M4.8,20c1.3,1,2.9,1.7,4.6,2v-6.6L4.8,20"/>
	</g>
	<g id="Fill-38_2_">
		<path d="M7.2,13.3H0.6c0.3,1.7,1,3.3,2,4.6L7.2,13.3"/>
	</g>
</g>
</svg>
