<?xml version="1.0" encoding="utf-8"?>
<!-- Generator: Adobe Illustrator 21.1.0, SVG Export Plug-In . SVG Version: 6.00 Build 0)  -->
<svg version="1.1" id="Layer_1" xmlns="http://www.w3.org/2000/svg" xmlns:xlink="http://www.w3.org/1999/xlink" x="0px" y="0px"
	 width="79" height="23" viewBox="0 0 79 23" style="enable-background:new 0 0 79 23;" xml:space="preserve">
<rect x="0.8" y="6.9" width="2.5" height="11.2"/>
<rect x="6.4" y="1" width="44.3" height="2"/>
<path d="M18,12.5c0,5,2.7,5.7,5,5.7c0.8,0,1.5-0.3,2-0.7c0,0.1,0,0.6,0,0.6c0,2-1.1,2.2-2.8,2.2c-0.8,0-2.2-0.2-3.1-0.4L18.8,22
	c0.9,0.3,2.3,0.6,3.9,0.6c2.2,0,4.8-1.1,4.8-4.2V7.1c-1.6-0.3-2.9-0.4-4.1-0.4C20.4,6.7,18,8.7,18,12.5z M25,9v6.5
	c-0.5,0.2-1.1,0.6-1.8,0.6c-1.6,0-2.7-0.9-2.7-3.6c0-2.1,0.8-3.6,2.9-3.6C24.1,8.9,24.6,9,25,9L25,9z"/>
<path d="M34.9,6.6c-2.9,0-5.1,1.5-5.1,6c0,4.4,2.1,5.6,5.3,5.6c1.3,0,2.8-0.1,3.6-0.4l-0.4-2.1c-0.8,0.2-2.1,0.3-2.8,0.3
	c-1.9,0-3.3-0.3-3.3-2.8h6.8v-1C39.1,8.7,37.9,6.6,34.9,6.6z M32.4,11.3c0.1-1.9,1.2-2.7,2.3-2.7c1.1,0,1.9,0.9,1.9,2.7H32.4z"/>
<rect x="53.8" y="6.9" width="2.5" height="11.2"/>
<path d="M64.1,8.8c1,0,1.7,0.2,2.4,0.5l0.7-2c-0.7-0.4-1.6-0.7-3.1-0.7c-3.3,0-5.4,2.2-5.4,5.8c0,4.2,1.6,5.9,5.8,5.9
	c1.1,0,1.8-0.2,2.6-0.4l-0.3-2.1c-0.7,0.1-1.3,0.3-2.1,0.3c-2.7,0-3.4-1.1-3.4-3.6C61.3,9.8,62.5,8.8,64.1,8.8z"/>
<path d="M73.6,6.6c-3.1,0-5.2,2.2-5.2,6c0,3.6,1.8,5.7,5,5.7c3,0,5.2-2,5.2-5.8C78.7,8.7,77.1,6.6,73.6,6.6z M73.6,16.1
	c-2,0-2.6-1.6-2.6-3.6c0-1.9,0.6-3.7,2.6-3.7c2.1,0,2.6,1.8,2.6,3.7C76.2,14.5,75.7,16.1,73.6,16.1z"/>
<circle cx="2" cy="2" r="1.4"/>
<circle cx="55.1" cy="2" r="1.4"/>
<path d="M12.4,6.6c-1.6,0-2.8,0.9-3.5,1.5v0c0,0-0.1,0.1-0.1,0.1C8.6,7.2,7.9,6.9,7.3,6.9h-1V18h2.5V9.8c0.5-0.3,1.6-1,2.7-1
	c1.4,0,1.7,0.7,1.7,2.3V18h2.5v-7.1C15.8,8.6,15.5,6.6,12.4,6.6z"/>
<path d="M47.3,6.6c-1.6,0-2.8,0.9-3.5,1.5v0c0,0-0.1,0.1-0.1,0.1c-0.2-0.9-0.9-1.2-1.5-1.2h-1V18h2.5V9.8c0.5-0.3,1.6-1,2.7-1
	c1.4,0,1.7,0.7,1.7,2.3V18h2.5v-7.1C50.7,8.6,50.5,6.6,47.3,6.6z"/>
</svg>
