<?xml version="1.0" encoding="utf-8"?>
<!-- Generator: Adobe Illustrator 21.1.0, SVG Export Plug-In . SVG Version: 6.00 Build 0)  -->
<svg version="1.1" id="Layer_1" xmlns="http://www.w3.org/2000/svg" xmlns:xlink="http://www.w3.org/1999/xlink" x="0px" y="0px"
	 viewBox="0 0 22 22" style="enable-background:new 0 0 22 22;" xml:space="preserve">
<path id="Facebook" d="M14.5,22v-8.5h2.8c0,0,0.3-1.6,0.4-3.3h-3.1V7.9c0-0.3,0.5-0.8,0.9-0.8h2.3V3.7h-3.1
	c-4.3,0-4.2,3.3-4.2,3.8v2.7h-2v3.3h2V22h-8C1.1,22,0,20.9,0,19.6V2.4C0,1.1,1.1,0,2.4,0h17.1C20.9,0,22,1.1,22,2.4v17.1
	c0,1.3-1.1,2.4-2.4,2.4H14.5z"/>
</svg>
