<?xml version="1.0" encoding="utf-8"?>
<!-- Generator: Adobe Illustrator 21.1.0, SVG Export Plug-In . SVG Version: 6.00 Build 0)  -->
<svg version="1.1" id="Layer_1" xmlns="http://www.w3.org/2000/svg" xmlns:xlink="http://www.w3.org/1999/xlink" x="0px" y="0px"
	 viewBox="0 0 22 22" style="enable-background:new 0 0 22 22;" xml:space="preserve">
<path id="Shape" d="M11,2c2.9,0,3.3,0,4.4,0.1c1.1,0,1.7,0.2,2,0.4c0.5,0.2,0.9,0.4,1.3,0.8c0.4,0.4,0.6,0.7,0.8,1.3
	c0.1,0.4,0.3,1,0.4,2C20,7.7,20,8.1,20,11s0,3.3-0.1,4.4c0,1.1-0.2,1.7-0.4,2c-0.2,0.5-0.4,0.9-0.8,1.3c-0.4,0.4-0.7,0.6-1.3,0.8
	c-0.4,0.1-1,0.3-2,0.4C14.3,20,13.9,20,11,20s-3.3,0-4.4-0.1c-1.1,0-1.7-0.2-2-0.4c-0.5-0.2-0.9-0.4-1.3-0.8
	c-0.4-0.4-0.6-0.7-0.8-1.3c-0.1-0.4-0.3-1-0.4-2C2,14.3,2,13.9,2,11S2,7.7,2,6.5c0-1.1,0.2-1.7,0.4-2C2.6,4,2.9,3.6,3.2,3.2
	S4,2.6,4.5,2.4c0.4-0.1,1-0.3,2-0.4C7.7,2,8,2,11,2L11,2z M11,0C8,0,7.6,0,6.5,0.1c-1.2,0.1-2,0.2-2.7,0.5C3.1,0.9,2.5,1.2,1.8,1.8
	s-1,1.2-1.3,1.9C0.3,4.5,0.1,5.3,0.1,6.5C0,7.6,0,8,0,11s0,3.4,0.1,4.5c0.1,1.2,0.2,2,0.5,2.7c0.3,0.7,0.7,1.3,1.3,1.9
	c0.6,0.6,1.2,1,1.9,1.3c0.7,0.3,1.5,0.5,2.7,0.5C7.6,21.9,8,22,11,22s3.4,0,4.5-0.1c1.2-0.1,2-0.2,2.7-0.5c0.7-0.3,1.3-0.7,1.9-1.3
	c0.6-0.6,1-1.2,1.3-1.9c0.3-0.7,0.5-1.5,0.5-2.7C21.9,14.3,22,14,22,11s0-3.4-0.1-4.5c-0.1-1.2-0.2-2-0.5-2.7
	c-0.3-0.7-0.7-1.3-1.3-1.9c-0.6-0.6-1.2-1-1.9-1.3c-0.7-0.3-1.5-0.5-2.7-0.5C14.3,0,14,0,11,0L11,0L11,0z"/>
<path id="Shape_1_" d="M11,5.3c-3.1,0-5.6,2.5-5.6,5.6s2.5,5.6,5.6,5.6s5.6-2.5,5.6-5.6S14.1,5.3,11,5.3L11,5.3z
	 M11,14.6c-2,0-3.7-1.6-3.7-3.7S9,7.3,11,7.3S14.6,9,14.6,11S13,14.6,11,14.6L11,14.6z"/>
<circle id="Oval" cx="16.8" cy="5.1" r="1.3"/>
</svg>
