<?xml version="1.0" encoding="utf-8"?>
<!-- Generator: Adobe Illustrator 21.1.0, SVG Export Plug-In . SVG Version: 6.00 Build 0)  -->
<svg version="1.1" id="Layer_1" xmlns="http://www.w3.org/2000/svg" xmlns:xlink="http://www.w3.org/1999/xlink" x="0px" y="0px"
	 viewBox="0 0 21 20" style="enable-background:new 0 0 21 20;" xml:space="preserve">
<path id="Linkedin" d="M0.5,6.4h4.1V20H0.5V6.4z M15.8,6.3c2.9,0,5.2,2,5.2,6.2V20h-4.6v-7c0-1.8-0.7-3.1-2.3-3.1
	c-1.2,0-1.9,0.8-2.2,1.7c-0.1,0.3-0.1,0.7-0.1,1.1V20H7.1c0,0,0.1-12.5,0-13.6h4.6v2.1C12,7.6,13.5,6.3,15.8,6.3z M2.5,0
	C4,0,4.9,1,5,2.4c0,1.3-1,2.4-2.5,2.4h0C1,4.7,0,3.7,0,2.4C0,1,1,0,2.5,0z"/>
</svg>
