<?xml version="1.0" encoding="utf-8"?>
<!-- Generator: Adobe Illustrator 21.1.0, SVG Export Plug-In . SVG Version: 6.00 Build 0)  -->
<svg version="1.1" id="Layer_1" xmlns="http://www.w3.org/2000/svg" xmlns:xlink="http://www.w3.org/1999/xlink" x="0px" y="0px"
	 width="22" height="22" viewBox="0 0 22 22" style="enable-background:new 0 0 22 22;" xml:space="preserve">
<path id="Pinterest" d="M11,0C4.9,0,0,4.9,0,11c0,4.7,2.9,8.6,7,10.2c-0.1-0.9-0.2-2.2,0-3.2c0.2-0.9,1.3-5.5,1.3-5.5
	S8,12,8,11c0-1.5,0.9-2.7,2-2.7c0.9,0,1.4,0.7,1.4,1.6c0,0.9-0.6,2.4-0.9,3.7c-0.3,1.1,0.5,2,1.6,2c1.9,0,3.5-2.1,3.5-5
	c0-2.6-1.9-4.5-4.6-4.5c-3.1,0-5,2.3-5,4.8c0,0.9,0.4,2,0.8,2.5c0.1,0.1,0.1,0.2,0.1,0.3c-0.1,0.3-0.3,1.1-0.3,1.2
	c0,0.2-0.2,0.2-0.4,0.1C4.8,14.3,4,12.3,4,10.7c0-3.5,2.5-6.7,7.3-6.7c3.8,0,6.8,2.7,6.8,6.3c0,3.8-2.4,6.8-5.7,6.8
	c-1.1,0-2.2-0.6-2.5-1.3c0,0-0.5,2.1-0.7,2.6c-0.2,1-0.9,2.1-1.4,2.9c1,0.3,2.1,0.5,3.3,0.5c6.1,0,11-4.9,11-11C22,4.9,17.1,0,11,0
	L11,0z"/>
</svg>
