<?xml version="1.0" encoding="utf-8"?>
<!-- Generator: Adobe Illustrator 21.1.0, SVG Export Plug-In . SVG Version: 6.00 Build 0)  -->
<svg version="1.1" id="Layer_1" xmlns="http://www.w3.org/2000/svg" xmlns:xlink="http://www.w3.org/1999/xlink" x="0px" y="0px"
	 viewBox="0 0 21 20" style="enable-background:new 0 0 21 20;" xml:space="preserve">
<style type="text/css">
	.st0{fill:#242529;}
</style>
<path id="Snap" class="st0" d="M10.6,20c-0.1,0-0.1,0-0.2,0l0,0c0,0-0.1,0-0.1,0c-1.2,0-2-0.6-2.8-1.1c-0.5-0.4-1-0.7-1.6-0.8
	C5.6,18,5.4,18,5.1,18c-0.5,0-0.9,0.1-1.2,0.1c-0.2,0-0.3,0.1-0.4,0.1c-0.1,0-0.3,0-0.3-0.2c0-0.2-0.1-0.3-0.1-0.5
	c-0.1-0.4-0.1-0.7-0.3-0.7c-2-0.3-2.5-0.7-2.7-1c0,0,0-0.1,0-0.1c0-0.1,0.1-0.2,0.2-0.2c3-0.5,4.4-3.6,4.5-3.8c0,0,0,0,0,0
	c0.2-0.4,0.2-0.7,0.1-1c-0.2-0.5-0.9-0.7-1.3-0.9c-0.1,0-0.2-0.1-0.3-0.1c-0.9-0.4-1-0.7-0.9-0.9C2.2,8.4,2.7,8.2,3,8.2
	c0.1,0,0.2,0,0.2,0C3.7,8.4,4,8.5,4.3,8.5C4.8,8.5,5,8.3,5,8.3c0-0.2,0-0.4,0-0.7C4.8,6.2,4.7,4.4,5.2,3.3C6.5,0.2,9.4,0,10.3,0
	c0,0,0.4,0,0.4,0h0c0.9,0,3.7,0.2,5.1,3.3c0.5,1,0.3,2.8,0.3,4.3l0,0.1c0,0.2,0,0.4,0,0.6c0,0,0.2,0.2,0.6,0.2l0,0
	c0.3,0,0.6-0.1,1-0.3c0.1-0.1,0.2-0.1,0.3-0.1c0.1,0,0.3,0,0.4,0.1h0c0.3,0.1,0.5,0.3,0.5,0.5c0,0.2-0.2,0.5-0.9,0.8
	c-0.1,0-0.2,0.1-0.3,0.1c-0.5,0.1-1.1,0.4-1.3,0.9c-0.1,0.3-0.1,0.6,0.1,1c0,0,0,0,0,0c0.1,0.1,1.4,3.3,4.5,3.8
	c0.1,0,0.2,0.1,0.2,0.2c0,0,0,0.1,0,0.1c-0.1,0.3-0.7,0.7-2.7,1c-0.2,0-0.2,0.2-0.3,0.7c0,0.2-0.1,0.3-0.1,0.5
	c0,0.1-0.1,0.2-0.3,0.2h0c-0.1,0-0.3,0-0.4-0.1c-0.3-0.1-0.7-0.1-1.2-0.1c-0.3,0-0.6,0-0.9,0.1c-0.6,0.1-1.1,0.5-1.6,0.8
	C12.7,19.4,11.9,20,10.6,20L10.6,20z"/>
</svg>
