<?xml version="1.0" encoding="utf-8"?>
<!-- Generator: Adobe Illustrator 21.1.0, SVG Export Plug-In . SVG Version: 6.00 Build 0)  -->
<svg version="1.1" id="Layer_1" xmlns="http://www.w3.org/2000/svg" xmlns:xlink="http://www.w3.org/1999/xlink" x="0px" y="0px"
	 width="25" height="22" viewBox="0 0 23 20" style="enable-background:new 0 0 23 20;" xml:space="preserve">
<path id="Twitter" d="M22.4,0.4c-0.9,0.6-1.9,1-3,1.2c-0.9-1-2.1-1.6-3.4-1.6c-2.6,0-4.7,2.3-4.7,5c0,0.4,0,0.8,0.1,1.2
	C7.4,6,3.9,4,1.6,0.9C1.2,1.7,1,2.5,1,3.5c0,1.8,0.8,3.3,2.1,4.2C2.3,7.6,1.6,7.4,0.9,7v0.1c0,2.4,1.6,4.5,3.8,5
	c-0.4,0.1-0.8,0.2-1.2,0.2c-0.3,0-0.6,0-0.9-0.1c0.6,2,2.3,3.5,4.4,3.5c-1.6,1.4-3.7,2.2-5.9,2.2c-0.4,0-0.8,0-1.1-0.1
	C2.1,19.2,4.6,20,7.2,20c8.7,0,13.4-7.7,13.4-14.4c0-0.2,0-0.4,0-0.7c0.9-0.7,1.7-1.6,2.4-2.6c-0.8,0.4-1.8,0.7-2.7,0.8
	C21.3,2.5,22,1.5,22.4,0.4"/>
</svg>
