<svg xmlns="http://www.w3.org/2000/svg" width="1em" height="1em" viewBox="0 0 18 18">
  <title>Twitter</title>
  <path
    d="M16.9,4.1c-.4.7-1,1.2-1.6,1.7v.4c0,.9-.1,1.7-.4,2.6s-.6,1.7-1.2,
        2.5c-.5.8-1.1,1.5-1.9,2.1-.7.6-1.6,1.1-2.6,1.5s-2.1.5-3.2.5c-1.8,
        0-3.5-.5-5-1.5h.8c1.5,0,2.8-.5,4-1.4-.7,
        0-1.3-.2-1.9-.6s-.9-1-1.1-1.6c.2,0,.4.1.6.1.3,0,.6,0,
        .9-.1-.7-.1-1.3-.5-1.8-1.1-.5-.6-.8-1.3-.8-2.1.5.3.9.4,
        1.5.4-.4-.3-.8-.7-1.1-1.2-.3-.5-.4-1-.4-1.5,0-.6.1-1.1.4-1.6.9,1,
        1.9,1.8,3,2.4s2.4.9,3.7,1v-.8c0-.9.3-1.7.9-2.3.6-.6,1.4-.9,2.3-.9.9,
        0,1.7.3,2.4,1,.7-.1,1.4-.4,2.1-.8-.2.8-.7,1.4-1.4,1.8.6-.1,1.2-.2,
        1.8-.5z"
  />
</svg>
