<svg xmlns="http://www.w3.org/2000/svg" width="1em" height="1em" viewBox="0 0 32 32">
  <title>Instagram</title>
  <path
    d="M3.722,8.667c-0.369,0-0.667-0.298-0.667-0.667v-6c0-0.369,
        0.298-0.667,0.667-0.667s0.667,0.298,0.667,0.667v6c0,0.369-0.298,
        0.667-0.667,0.667z"
  />
  <path
    d="M5.972,8.667c-0.369,0-0.667-0.298-0.667-0.667v-6.5c0-0.369,
        0.298-0.667,0.667-0.667s0.667,0.298,0.667,0.667v6.5c0,0.369-0.298,
        0.667-0.667,0.667z"
  />
  <path
    d="M8.222,8.667c-0.369,0-0.667-0.298-0.667-0.667v-6.5c0-0.369,
        0.298-0.667,0.667-0.667s0.667,0.298,0.667,0.667v6.5c0,0.369-0.298,
        0.667-0.667,0.667z"
  />
  <path
    d="M24.861,32h-16.917c-5.049,0-7.945-2.657-7.945-7.292v-16.625c0-4.835,
        2.847-8.083,7.083-8.083h18.389c3.139,0,6.527,3.016,
        6.527,7.889v16.722c0,4.143-3.135,7.389-7.139,7.389zM7.083,
        1.333c-4.244,0-5.75,3.636-5.75,6.75v16.625c0,4.924,3.595,5.958,
        6.611,5.958h16.917c3.31,0,5.805-2.603,
        5.805-6.055v-16.722c0-4.049-2.696-6.556-5.194-6.556h-18.389z"
  />
  <path
    d="M15.999,10.167c-2.823,0-5.111,2.289-5.111,5.112s2.289,5.111,
        5.111,5.111,5.111-2.288,5.111-5.111-2.289-5.112-5.111-5.112zM15.999,
        17.833c-1.411,0-2.556-1.144-2.556-2.555s1.145-2.556,2.556-2.556,2.556,
        1.145,2.556,2.556-1.145,2.555-2.556,2.555z"
  />
  <path
    d="M15.999,23.389c-4.473,0-8.111-3.639-8.111-8.111s3.639-8.111,
        8.111-8.111,8.111,3.639,8.111,8.111-3.639,8.111-8.111,8.111zM15.999,
        8.5c-3.737,0-6.778,3.041-6.778,6.778s3.041,6.778,6.778,6.778,
        6.778-3.041,6.778-6.778-3.041-6.778-6.778-6.778z"
  />
  <path d="M21.999,9.947h9.333v1.44h-9.333v-1.44z" />
  <path d="M0.999,9.966h8.833v1.401h-8.833v-1.401z" />
  <path
    d="M27.555,6.755c0,0.81-0.657,1.467-1.468,1.467h-2.176c-0.811,
        0-1.468-0.657-1.468-1.467v-2.177c0-0.81,0.657-1.467,
        1.468-1.467h2.176c0.811,0,1.468,0.657,1.468,1.467v2.177z"
  />
</svg>
