<?xml version="1.0" encoding="utf-8"?>
<!-- Generator: Adobe Illustrator 21.1.0, SVG Export Plug-In . SVG Version: 6.00 Build 0)  -->
<svg version="1.1" id="Layer_1" xmlns="http://www.w3.org/2000/svg" xmlns:xlink="http://www.w3.org/1999/xlink" x="0px" y="0px"
	 viewBox="0 0 134 35" style="enable-background:new 0 0 134 35;" xml:space="preserve">
<style type="text/css">
	.st0{fill:#242529;}
</style>
<polygon id="Shape" class="st0" points="0.4,0.1 1.2,15.1 30.6,12.1 32,3.4 "/>
<polygon id="Shape_1_" class="st0" points="5.7,26.2 6.1,33.8 16.4,34.9 18.4,22.3 "/>
<polygon id="Shape_2_" class="st0" points="26.1,14.9 4.5,12.7 2.7,23.8 26.6,23.8 "/>
<path id="Shape_3_" class="st0" d="M41.6,18.1h-1.7v-2.9h1.7v-1.1c0-2.4,1.1-3.9,4-3.9h2.2v2.9h-1.4c-1.2,0-1.5,0.4-1.5,1.4v0.6h2.8
	l-0.5,2.9h-2.4v10h-3.3V18.1L41.6,18.1z"/>
<path id="Shape_4_" class="st0" d="M74.3,11.4l3.3-0.5v4.2h2.7V18h-2.7v5.9c0,0.9,0.3,1.2,1.4,1.2h1.4V28h-1.9c-2.3,0-4-0.5-4-3.4
	L74.3,11.4L74.3,11.4z"/>
<path id="Shape_5_" class="st0" d="M82.1,11.8c0-1.1,0.9-2,2-2c1.1,0,2,0.9,2,2s-0.9,2-2,2C82.9,13.8,82.1,12.9,82.1,11.8L82.1,11.8
	z M82.4,15.1h3.3V28h-3.3V15.1z"/>
<polygon id="Shape_6_" class="st0" points="110,28 106,22.4 104.8,23.6 104.8,28 101.5,28 101.5,11.4 104.8,10.9 104.8,19.5 
	109.3,15.1 113.5,15.1 108.4,20 114.1,28 "/>
<path id="Shape_7_" class="st0" d="M127.9,11.4l3.3-0.5v4.2h2.7V18h-2.7v5.9c0,0.9,0.3,1.2,1.4,1.2h1.4V28h-1.9c-2.3,0-4-0.5-4-3.4
	L127.9,11.4L127.9,11.4z"/>
<path id="Shape_8_" class="st0" d="M54.3,25.5c1.3,0,2-0.6,2.4-1.6l3.2,0.5c-0.6,2.2-2.7,4-5.5,4c-3.7,0-6.3-2.2-6.3-6.8
	c0-4.2,2.6-6.8,6.3-6.8c3.6,0,6,2.5,6,6.7c0,0.4,0,0.8-0.1,1.2h-8.8C51.6,24.6,52.6,25.5,54.3,25.5 M51.5,20H57
	c-0.3-1.5-1.2-2.3-2.7-2.3C52.9,17.8,51.8,18.4,51.5,20"/>
<path id="Shape_9_" class="st0" d="M120.1,25.5c1.3,0,2-0.6,2.4-1.6l3.2,0.5c-0.6,2.2-2.7,4-5.5,4c-3.7,0-6.3-2.2-6.3-6.8
	c0-4.2,2.6-6.8,6.3-6.8c3.6,0,6,2.5,6,6.7c0,0.4,0,0.8-0.1,1.2h-8.8C117.4,24.6,118.4,25.5,120.1,25.5 M117.3,20h5.5
	c-0.3-1.5-1.2-2.3-2.7-2.3C118.8,17.8,117.7,18.4,117.3,20"/>
<path id="Shape_10_" class="st0" d="M61.6,24.3l3.2-0.4c0.1,1.2,0.9,1.9,2.3,1.9c1.6,0,2.2-0.4,2.2-1.2c0-0.6-0.5-0.9-2-1.4
	l-2.1-0.6c-1.5-0.5-3.3-1.2-3.3-3.6c0.1-3,2.7-4.1,5.3-4.1c2.7,0,5.2,1.1,5.2,3.8l-3.2,0.5c0-1-0.9-1.6-2-1.6
	c-1.2,0-1.8,0.4-1.8,1.1c0,0.4,0.3,0.8,1.3,1.1l2.8,0.9c1.9,0.6,3.2,1.5,3.2,3.6c0,3.1-2.7,4.2-5.5,4.2
	C64.1,28.4,61.6,27.1,61.6,24.3"/>
<path id="Shape_11_" class="st0" d="M87.7,21.7c0-3.9,2.3-6.9,6.3-6.9c3.1,0,5.4,1.9,5.7,4.7L96.5,20c-0.3-1.2-1-2.2-2.6-2.2
	c-2.1,0-2.9,1.8-2.9,3.8c0,2,0.8,3.8,2.9,3.8c1.6,0,2.4-0.8,2.6-2.1l3.2,0.5c-0.5,2.8-2.5,4.7-5.8,4.7
	C89.9,28.4,87.7,25.6,87.7,21.7"/>
</svg>
