<?xml version="1.0" encoding="utf-8"?>
<!-- Generator: Adobe Illustrator 21.1.0, SVG Export Plug-In . SVG Version: 6.00 Build 0)  -->
<svg version="1.1" id="Layer_1" xmlns="http://www.w3.org/2000/svg" xmlns:xlink="http://www.w3.org/1999/xlink" x="0px" y="0px"
	 width="200" height="65" viewBox="0 0 197 64" style="enable-background:new 0 0 197 64;" xml:space="preserve">
<path id="Combined-Shape" d="M25.3,24.9l21.2,2.2l0.8,16.1H32.1l-3.2,20.3l-18.7-2L9.5,47.7l14.4-4.5H4.2
	l2.6-16.4l-5.4,0.6L0,0l57.2,6l-2.5,15.8L25.3,24.9z"/>
<path id="Shape" d="M70.2,37h-2.3v-4.1h2.3v-1.5c0-3.3,1.6-5.4,5.5-5.4h3v4.1h-2c-1.6,0-2,0.6-2,1.9v0.9h3.9
	L77.9,37h-3.3v13.9h-4.5V37z"/>
<path id="Shape_1_" d="M115.1,27.7l4.5-0.6v5.9h3.7V37h-3.7v8.1c0,1.3,0.4,1.8,1.8,1.8h1.8v4h-2.6
	c-3.2,0-5.6-0.7-5.6-4.7L115.1,27.7z"/>
<path id="Shape_2_" d="M125.7,28.3c0-0.7,0.3-1.5,0.8-2c0.5-0.5,1.2-0.8,2-0.8c0.7,0,1.4,0.3,2,0.8
	c0.5,0.5,0.8,1.2,0.8,2c0,1.5-1.2,2.7-2.7,2.7c-0.7,0-1.5-0.3-2-0.8C126,29.7,125.7,29,125.7,28.3L125.7,28.3z M126.2,32.9h4.5v17.9
	h-4.5V32.9z"/>
<polygon id="Shape_3_" points="164.1,50.8 158.7,42.9 157,44.6 157,50.8 152.5,50.8 152.5,27.7 157,27 
	157,39 163.2,32.9 168.9,32.9 161.9,39.8 169.7,50.8 "/>
<path id="Shape_4_" d="M188.6,27.7l4.5-0.6v5.9h3.7V37h-3.7v8.1c0,1.3,0.4,1.8,1.8,1.8h1.8v4h-2.7
	c-3.2,0-5.6-0.7-5.6-4.7L188.6,27.7z"/>
<path id="Shape_5_" d="M87.6,47.3c1.5,0.1,2.9-0.8,3.3-2.3l4.4,0.6c-0.9,3.4-4.1,5.7-7.6,5.6
	c-5.1,0-8.6-3.1-8.6-9.4c0-5.8,3.5-9.5,8.6-9.5c5.1,0,8.2,3.5,8.2,9.2c0,0.6,0,1.1-0.1,1.7H83.6C83.8,46.1,85.3,47.3,87.6,47.3
	 M83.7,39.7h7.5c-0.4-2.1-1.6-3.3-3.7-3.3C85.6,36.4,83.9,37.8,83.7,39.7"/>
<path id="Shape_6_" d="M178,47.3c1.5,0.1,2.9-0.8,3.3-2.3l4.4,0.6c-0.9,3.4-4.1,5.7-7.6,5.6
	c-5.1,0-8.6-3.1-8.6-9.4c0-5.8,3.5-9.5,8.6-9.5s8.2,3.5,8.2,9.2c0,0.6,0,1.1-0.1,1.7H174C174.3,46.1,175.7,47.3,178,47.3
	 M174.2,39.7h7.5c-0.4-2.1-1.6-3.3-3.7-3.3C176.1,36.4,174.4,37.8,174.2,39.7"/>
<path id="Shape_7_" d="M97.6,45.6L102,45c0.1,1.6,1.2,2.5,3.1,2.5c2.2,0,3-0.5,3-1.7c0-0.9-0.7-1.2-2.7-1.8
	l-2.9-0.9c-2.1-0.7-4.6-1.8-4.6-5.1c0.1-4.1,3.7-5.6,7.2-5.6c3.7,0,7.1,1.6,7.1,5.3l-4.4,0.6c0-1.3-1.2-2.2-2.7-2.2
	c-1.6,0-2.5,0.5-2.5,1.5c0,0.7,0.4,1.1,1.8,1.6l3.8,1.2c2.6,0.9,4.5,2.1,4.5,5c0,4.3-3.8,5.8-7.5,5.8
	C101.1,51.3,97.6,49.5,97.6,45.6"/>
<path id="Shape_8_" d="M133.5,42c0-5.4,3.2-9.6,8.6-9.6c4.3,0,7.4,2.7,7.8,6.6l-4.4,0.6
	c-0.2-1.8-1.7-3.1-3.5-3c-2.8,0-4,2.5-4,5.3c0,2.8,1.1,5.2,3.9,5.2c1.8,0.2,3.4-1.1,3.6-2.9l4.4,0.6c-0.7,4-3.4,6.5-8,6.5
	C136.5,51.3,133.5,47.5,133.5,42"/>
</svg>
