<?xml version="1.0" encoding="utf-8"?>
<!-- Generator: Adobe Illustrator 22.0.1, SVG Export Plug-In . SVG Version: 6.00 Build 0)  -->
<svg version="1.1" id="Layer_1" xmlns="http://www.w3.org/2000/svg" xmlns:xlink="http://www.w3.org/1999/xlink" viewBox="0 0 32 32">
      <title>Close</title>
      <path
        d="M18.507 16l9.404-9.404c0.266-0.309 0.427-0.714 0.427-1.156 0-0.982-0.796-1.778-1.778-1.778-0.443 0-0.848 
            0.162-1.159 0.429l-9.402 9.402-9.404-9.422c-0.323-0.323-0.769-0.523-1.262-0.523-0.986 0-1.785 0.799-1.785
            1.785 0 0.493 0.2 0.939 0.523 1.262l9.422 9.404-9.422 9.404c-0.381 0.328-0.621 0.811-0.621 1.35 0 0.982
            0.796 1.778 1.778 1.778 0.539 0 1.022-0.24 1.348-0.619l9.424-9.407 9.404 9.404c0.309 0.266 0.714 0.427
            1.156 0.427 0.982 0 1.778-0.796 1.778-1.778 0-0.443-0.162-0.848-0.429-1.159z"/>
</svg>