<?xml version="1.0" encoding="utf-8"?>
<!-- Generator: Adobe Illustrator 21.0.0, SVG Export Plug-In . SVG Version: 6.00 Build 0)  -->
<!DOCTYPE svg PUBLIC "-//W3C//DTD SVG 1.1//EN" "http://www.w3.org/Graphics/SVG/1.1/DTD/svg11.dtd">
<svg version="1.1" id="Layer_1" xmlns="http://www.w3.org/2000/svg" xmlns:xlink="http://www.w3.org/1999/xlink" x="0px" y="0px"
	 viewBox="0 0 20 20" style="enable-background:new 0 0 20 20;" xml:space="preserve">
<g id="Search">
	<path d="M9,3c3.3,0,6,2.7,6,6c0,1.3-0.4,2.6-1.3,3.7l-0.5,0.6l-0.6,0.5C11.6,14.6,10.3,15,9,15c-3.3,0-6-2.7-6-6S5.7,3,9,3 M9,1
		C4.6,1,1,4.6,1,9s3.6,8,8,8c1.8,0,3.5-0.6,4.9-1.7l3.7,3.7l1.4-1.4l-3.7-3.7C16.4,12.5,17,10.8,17,9C17,4.6,13.4,1,9,1L9,1z"/>
</g>
</svg>
