<?xml version="1.0" encoding="utf-8"?>
<!-- Generator: Adobe Illustrator 22.0.1, SVG Export Plug-In . SVG Version: 6.00 Build 0)  -->
<svg version="1.1" id="Layer_1" xmlns="http://www.w3.org/2000/svg" xmlns:xlink="http://www.w3.org/1999/xlink" x="0px" y="0px"
	 width="18" height="18" viewBox="0 0 18 18" style="enable-background:new 0 0 18 18;" xml:space="preserve">
<g id="Search">
	<path d="M8,2c3.3,0,6,2.7,6,6c0,1.3-0.4,2.6-1.3,3.7l-0.5,0.6l-0.6,0.5C10.6,13.6,9.3,14,8,14c-3.3,0-6-2.7-6-6S4.7,2,8,2 M8,0
		C3.6,0,0,3.6,0,8s3.6,8,8,8c1.8,0,3.5-0.6,4.9-1.7l3.7,3.7l1.4-1.4l-3.7-3.7C15.4,11.5,16,9.8,16,8C16,3.6,12.4,0,8,0L8,0z"/>
</g>
</svg>
