<?xml version="1.0" encoding="utf-8"?>
<!-- Generator: Adobe Illustrator 21.1.0, SVG Export Plug-In . SVG Version: 6.00 Build 0)  -->
<svg version="1.1" id="Layer_1" xmlns="http://www.w3.org/2000/svg" xmlns:xlink="http://www.w3.org/1999/xlink" x="0px" y="0px"
	 viewBox="0 0 39 26" style="enable-background:new 0 0 39 26;" xml:space="preserve">
<style type="text/css">
	.st0{fill:#0081C9;}
	.st1{fill:#FFFFFF;}
</style>
<g id="Visa_4_">
	<path id="Back_4_" class="st0" d="M1.8,0h35.4c1,0,1.8,0.8,1.8,1.9v22.3c0,1-0.8,1.9-1.8,1.9H1.8c-1,0-1.8-0.8-1.8-1.9V1.9
		C0,0.8,0.8,0,1.8,0z"/>
	<path class="st1" d="M31,12.9l2.8-3.2h-4.1L29,10.6l-0.7-0.9H17.5l-0.7,1.8L16,9.7h-3.5v2.5l-1.2-2.5H8.7l-3.2,6.7H9l0.5-1.1h1
		l0.5,1.1H28l0.9-1.1l0.9,1.1H34L31,12.9z M12.9,15.4h-1.4l-0.5-1.1H8.8l-0.5,1.1H7l2.3-4.7h1.4L12.9,15.4L12.9,15.4z M20,15.4h-1.3
		V12h0l-1.5,3.4h-1L14.7,12h0v3.3h-1.3v-4.7h1.9l1.4,3.3h0l1.3-3.3H20V15.4z M25.8,15.4h-4.6v-4.7h4.6v0.9h-3.2v1h2.9v0.8h-2.9v1.2
		h3.3V15.4z M28.9,13.7l-1.4,1.6h0h-1.5l2.1-2.5l-2-2.3h1.6l1.2,1.5l1.2-1.5h1.5l-2,2.3l2.1,2.5h-1.6L28.9,13.7z"/>
	<polygon class="st1" points="9.9,11.8 9.1,13.5 10.7,13.5 10,11.8 	"/>
</g>
</svg>
