<?xml version="1.0" encoding="utf-8"?>
<!-- Generator: Adobe Illustrator 21.1.0, SVG Export Plug-In . SVG Version: 6.00 Build 0)  -->
<svg version="1.1" id="Layer_1" xmlns="http://www.w3.org/2000/svg" xmlns:xlink="http://www.w3.org/1999/xlink" x="0px" y="0px"
	 viewBox="0 0 39 26" style="enable-background:new 0 0 39 26;" xml:space="preserve">
<path id="Back_4_" style="fill:#F5F6F8;" d="M1.8,0h35.4c1,0,1.8,0.8,1.8,1.9v22.3c0,1-0.8,1.9-1.8,1.9H1.8c-1,0-1.8-0.8-1.8-1.9
	V1.9C0,0.8,0.8,0,1.8,0z"/>
<path id="Oval-5-Copy_3_" style="fill:#1798DE;" d="M19.5,7.7c1.2-1,2.7-1.6,4.3-1.6c3.8,0,6.8,3,6.8,6.8s-3.1,6.8-6.8,6.8
	c-1.6,0-3.2-0.6-4.3-1.6C21,17,22,15.1,22,13S21,9,19.5,7.7z"/>
<path id="Oval-5-Copy_2_" style="fill:#EB141C;" d="M19.5,7.7c-1.2-1-2.7-1.6-4.3-1.6c-3.8,0-6.8,3-6.8,6.8s3.1,6.8,6.8,6.8
	c1.6,0,3.2-0.6,4.3-1.6C18,17,17,15.1,17,13S18,9,19.5,7.7z"/>
<path id="Mask_2_" style="fill:#6E6ABC;" d="M19.5,18.3C21,17,22,15.1,22,13s-1-4-2.5-5.3C18,9,17,10.9,17,13S18,17,19.5,18.3z"/>
<path id="border_5_" style="fill:#DCDDDF;" d="M37.2,0.6c0.7,0,1.2,0.5,1.2,1.2v22.3c0,0.7-0.5,1.2-1.2,1.2H1.8
	c-0.7,0-1.2-0.5-1.2-1.2V1.9c0-0.7,0.5-1.2,1.2-1.2H37.2 M37.2,0H1.8C0.8,0,0,0.8,0,1.9v22.3c0,1,0.8,1.9,1.8,1.9h35.4
	c1,0,1.8-0.8,1.8-1.9V1.9C39,0.8,38.2,0,37.2,0L37.2,0z"/>
</svg>
