<?xml version="1.0" encoding="utf-8"?>
<!-- Generator: Adobe Illustrator 21.1.0, SVG Export Plug-In . SVG Version: 6.00 Build 0)  -->
<svg version="1.1" id="Layer_1" xmlns="http://www.w3.org/2000/svg" xmlns:xlink="http://www.w3.org/1999/xlink" x="0px" y="0px"
	 viewBox="0 0 39 26" style="enable-background:new 0 0 39 26;" xml:space="preserve">
<style type="text/css">
	.st0{fill:#F5F6F8;}
	.st1{fill:#F7A213;}
	.st2{fill:#EB141C;}
	.st3{fill:#FE6412;}
	.st4{fill:#DCDDDF;}
</style>
<g id="Maestro_1_" transform="translate(13.343750, 9.523810)">
	<path id="Back_5_" class="st0" d="M-11.5-9.5h35.4c1,0,1.8,0.8,1.8,1.9v22.3c0,1-0.8,1.9-1.8,1.9h-35.4c-1,0-1.8-0.8-1.8-1.9V-7.7
		C-13.3-8.7-12.5-9.5-11.5-9.5z"/>
	<path id="Oval-5-Copy_5_" class="st1" d="M6.2-1.8c1.2-1,2.7-1.6,4.3-1.6c3.8,0,6.8,3,6.8,6.8s-3.1,6.8-6.8,6.8
		c-1.6,0-3.2-0.6-4.3-1.6c1.5-1.2,2.5-3.1,2.5-5.3S7.7-0.5,6.2-1.8z"/>
	<path id="Oval-5-Copy_2_" class="st2" d="M6.2-1.8C5-2.7,3.5-3.3,1.8-3.3c-3.8,0-6.8,3-6.8,6.8s3.1,6.8,6.8,6.8
		c1.6,0,3.2-0.6,4.3-1.6C4.6,7.5,3.7,5.6,3.7,3.5S4.6-0.5,6.2-1.8z"/>
	<path id="Mask_2_" class="st3" d="M6.2,8.7c1.5-1.2,2.5-3.1,2.5-5.3s-1-4-2.5-5.3C4.6-0.5,3.7,1.4,3.7,3.5S4.6,7.5,6.2,8.7z"/>
	<path id="border_6_" class="st4" d="M23.8-8.9c0.7,0,1.2,0.5,1.2,1.2v22.3c0,0.7-0.5,1.2-1.2,1.2h-35.4c-0.7,0-1.2-0.5-1.2-1.2
		V-7.7c0-0.7,0.5-1.2,1.2-1.2H23.8 M23.8-9.5h-35.4c-1,0-1.8,0.8-1.8,1.9v22.3c0,1,0.8,1.9,1.8,1.9h35.4c1,0,1.8-0.8,1.8-1.9V-7.7
		C25.7-8.7,24.8-9.5,23.8-9.5L23.8-9.5z"/>
</g>
</svg>
