<?xml version="1.0" encoding="utf-8"?>
<!-- Generator: Adobe Illustrator 21.1.0, SVG Export Plug-In . SVG Version: 6.00 Build 0)  -->
<svg version="1.1" id="Layer_1" xmlns="http://www.w3.org/2000/svg" xmlns:xlink="http://www.w3.org/1999/xlink" x="0px" y="0px"
	 width="39" height="26" viewBox="0 0 39 26" style="enable-background:new 0 0 39 26;" xml:space="preserve">
<path id="Back_10_" style="fill:#F5F6F8;" d="M1.8,0h35.4c1,0,1.8,0.8,1.8,1.9v22.3c0,1-0.8,1.9-1.8,1.9H1.8c-1,0-1.8-0.8-1.8-1.9
	V1.9C0,0.8,0.8,0,1.8,0z"/>
<path id="XMLID_15_" style="fill:#38519F;" d="M9.1,12.2c-0.1,0.8-0.7,0.8-1.3,0.8H7.5l0.2-1.5c0-0.1,0.1-0.2,0.2-0.2h0.2
	c0.4,0,0.8,0,1,0.2C9.2,11.7,9.2,11.9,9.1,12.2z M8.9,10.1H6.7c-0.2,0-0.3,0.1-0.3,0.3l-0.9,5.8c0,0.1,0.1,0.2,0.2,0.2h1
	c0.2,0,0.3-0.1,0.3-0.3l0.2-1.6c0-0.2,0.2-0.3,0.3-0.3h0.7c1.4,0,2.3-0.7,2.5-2.2c0.1-0.6,0-1.1-0.3-1.5
	C10.2,10.3,9.6,10.1,8.9,10.1z"/>
<path id="XMLID_14_" style="fill:#38519F;" d="M13.9,14.3c-0.1,0.6-0.6,1-1.2,1c-0.3,0-0.5-0.1-0.7-0.3c-0.2-0.2-0.2-0.5-0.2-0.8
	c0.1-0.6,0.6-1.1,1.2-1.1c0.3,0,0.5,0.1,0.7,0.3C13.9,13.8,14,14,13.9,14.3z M15.4,12.2h-1c-0.1,0-0.2,0.1-0.2,0.2l0,0.3l-0.1-0.1
	c-0.2-0.3-0.7-0.5-1.2-0.5c-1.1,0-2.1,0.9-2.3,2.2c-0.1,0.6,0,1.2,0.4,1.7c0.3,0.4,0.8,0.5,1.3,0.5c0.9,0,1.4-0.6,1.4-0.6l0,0.3
	c0,0.1,0.1,0.2,0.2,0.2h0.9c0.2,0,0.3-0.1,0.3-0.3l0.6-3.7C15.6,12.3,15.5,12.2,15.4,12.2z"/>
<path id="XMLID_13_" style="fill:#38519F;" d="M20.9,12.2h-1c-0.1,0-0.2,0.1-0.2,0.1l-1.4,2.2l-0.6-2.1c0-0.1-0.2-0.2-0.3-0.2h-1
	c-0.1,0-0.2,0.1-0.2,0.3l1.1,3.5l-1.1,1.6c-0.1,0.1,0,0.3,0.2,0.3h1c0.1,0,0.2,0,0.2-0.1l3.5-5.3C21.2,12.4,21.1,12.2,20.9,12.2z"/>
<path id="XMLID_12_" style="fill:#179BD7;" d="M24.6,12.2c-0.1,0.8-0.7,0.8-1.3,0.8H23l0.2-1.5c0-0.1,0.1-0.2,0.2-0.2h0.2
	c0.4,0,0.8,0,1,0.2C24.6,11.7,24.7,11.9,24.6,12.2z M24.4,10.1h-2.2c-0.2,0-0.3,0.1-0.3,0.3L21,16.2c0,0.1,0.1,0.2,0.2,0.2h1.1
	c0.1,0,0.2-0.1,0.2-0.2l0.2-1.6c0-0.2,0.2-0.3,0.3-0.3h0.7c1.4,0,2.3-0.7,2.5-2.2c0.1-0.6,0-1.1-0.3-1.5
	C25.7,10.3,25.1,10.1,24.4,10.1z"/>
<path id="XMLID_11_" style="fill:#179BD7;" d="M29.4,14.3c-0.1,0.6-0.6,1-1.2,1c-0.3,0-0.5-0.1-0.7-0.3c-0.2-0.2-0.2-0.5-0.2-0.8
	c0.1-0.6,0.6-1.1,1.2-1.1c0.3,0,0.5,0.1,0.7,0.3C29.4,13.8,29.5,14,29.4,14.3z M30.9,12.2h-1c-0.1,0-0.2,0.1-0.2,0.2l0,0.3l-0.1-0.1
	c-0.2-0.3-0.7-0.5-1.2-0.5c-1.1,0-2.1,0.9-2.3,2.2c-0.1,0.6,0,1.2,0.4,1.7c0.3,0.4,0.8,0.5,1.3,0.5c0.9,0,1.4-0.6,1.4-0.6l0,0.3
	c0,0.1,0.1,0.2,0.2,0.2h0.9c0.2,0,0.3-0.1,0.3-0.3l0.6-3.7C31.1,12.3,31,12.2,30.9,12.2z"/>
<path id="XMLID_10_" style="fill:#179BD7;" d="M32.1,10.3l-0.9,5.9c0,0.1,0.1,0.2,0.2,0.2h0.9c0.2,0,0.3-0.1,0.3-0.3l0.9-5.8
	c0-0.1-0.1-0.2-0.2-0.2h-1C32.2,10.1,32.1,10.2,32.1,10.3z"/>
<path id="Border_5_" style="opacity:0.1;" d="M37.2,0.6c0.7,0,1.2,0.5,1.2,1.2v22.3c0,0.7-0.5,1.2-1.2,1.2H1.8
	c-0.7,0-1.2-0.5-1.2-1.2V1.9c0-0.7,0.5-1.2,1.2-1.2H37.2 M37.2,0H1.8C0.8,0,0,0.8,0,1.9v22.3c0,1,0.8,1.9,1.8,1.9h35.4
	c1,0,1.8-0.8,1.8-1.9V1.9C39,0.8,38.2,0,37.2,0L37.2,0z"/>
</svg>
