<?xml version="1.0" encoding="utf-8"?>
<!-- Generator: Adobe Illustrator 21.1.0, SVG Export Plug-In . SVG Version: 6.00 Build 0)  -->
<svg version="1.1" id="Layer_1" xmlns="http://www.w3.org/2000/svg" xmlns:xlink="http://www.w3.org/1999/xlink" x="0px" y="0px"
	 width="39" height="26" viewBox="0 0 39 26" style="enable-background:new 0 0 39 26;" xml:space="preserve">
<path id="Back_11_" style="fill:#F5F6F8;" d="M1.8,0h35.4c1,0,1.8,0.8,1.8,1.9v22.3c0,1-0.8,1.9-1.8,1.9H1.8c-1,0-1.8-0.8-1.8-1.9
	V1.9C0,0.8,0.8,0,1.8,0z"/>
<path id="Rectangle-6-Copy-2_2_" style="fill:#0071CE;" d="M1.8,0h35.4c1,0,1.8,0.8,1.8,1.9v4.3H0V1.9C0,0.8,0.8,0,1.8,0z"/>
<path id="Rectangle-6-Copy-3_2_" style="fill:#FB9122;" d="M0,19.8h39v4.3c0,1-0.8,1.9-1.8,1.9H1.8c-1,0-1.8-0.8-1.8-1.9V19.8z"/>
<path id="path14_2_" style="fill:#0071CE;" d="M15.7,17.2l1.1-7.2h1.8l-1.1,7.2H15.7z M24,10.2c-0.4-0.1-0.9-0.3-1.6-0.3
	c-1.8,0-3,1-3,2.4c0,1,0.9,1.6,1.6,2c0.7,0.4,0.9,0.6,0.9,0.9c0,0.5-0.6,0.7-1.1,0.7c-0.7,0-1.1-0.1-1.7-0.4l-0.2-0.1l-0.3,1.6
	c0.4,0.2,1.2,0.4,2,0.4c1.9,0,3.1-1,3.1-2.5c0-0.8-0.5-1.4-1.5-2c-0.6-0.3-1-0.6-1-0.9c0-0.3,0.3-0.6,1-0.6c0.6,0,1,0.1,1.3,0.3
	l0.2,0.1L24,10.2z M26.4,14.7c0.1-0.4,0.7-2,0.7-2c0,0,0.1-0.4,0.2-0.7l0.1,0.6c0,0,0.3,1.7,0.4,2.1H26.4z M12.2,13.9l0.2,1l1.8-4.9
	h1.9l-2.8,7.2l-1.9,0L9.8,11c-0.6-0.3-1.2-0.6-1.9-0.8l0-0.1h2.9c0.4,0,0.7,0.2,0.8,0.6L12.2,13.9z M28.6,10h-1.4
	c-0.4,0-0.8,0.1-0.9,0.6l-2.7,6.6h1.9c0,0,0.3-0.9,0.4-1.1c0.2,0,2,0,2.3,0c0.1,0.3,0.2,1.1,0.2,1.1H30L28.6,10z"/>
</svg>
